<svg xmlns="http://www.w3.org/2000/svg">
  <defs>
    <symbol id='burger' viewbox='0 0 19 15'>
      <title>Burger</title>

      <path d="M15.48.38c0 .14-.22 0-.22.18s.19.07.28.06h.67a9.8 9.8 0 0 1 2.34-.14c.07 0 .09.2.17.24s.2-.15.33 0c.05.61-.56.27-.64.77-.35.07-.87 0-1 .4-1.37.11-2.52.92-3.82.6a8.77 8.77 0 0 1-2.57.14c-.45 0-.9.08-1.34 0-.08 0-.13-.12-.19-.12a14.89 14.89 0 0 0-1.67.09c-.33 0-.59.12-.95.1s-1.05.06-1.67.09c-.31 0-.62-.12-.92-.07-.06 0-.13.11-.2.12s-.1-.06-.17-.06-.1.11-.14.12h-.64a4.81 4.81 0 0 1-.75 0 2 2 0 0 1-.56-.13c-.07 0-.13-.14-.19-.18s-.14 0-.2 0c-.26-.11-.45-.5-.75-.37-.09-.1-.16-.25-.28-.3a.79.79 0 0 1 .22-.48c0-.22-.13-.34-.08-.48.28-.16.52.1.75 0s.33-.39.53-.29c.08-.06.11-.24.2-.3.35.11.73-.1 1.14-.1.14 0 .28.12.42.13s.06-.11.08-.12a3.19 3.19 0 0 1 .56 0c.24 0 .72.07 1.09.08A11.88 11.88 0 0 1 7.4.27c.31-.2.81 0 1.2-.1s.87.09 1.31.08c1.88 0 3.64.05 5.57.13ZM18.08 7.38c0 .26-.12 0-.17.07s.05.59-.07.58a2.62 2.62 0 0 0-.92.13c-.12.11.1 0 0 .24s-.38 0-.63.08-.68.34-1 .21c0 .26.1.08.14.16a18.09 18.09 0 0 1-3.31.11c-.13 0-.27-.11-.4-.1s-.31.23-.46.24-.61-.11-.91-.11c-.56 0-1.13.29-1.69.29a6.74 6.74 0 0 0-.91 0s-.1-.08-.14 0a1.63 1.63 0 0 0-.06.23s-.09-.26-.14-.28-.34.18-.49.12a2.18 2.18 0 0 0-.71-.3 6.06 6.06 0 0 0-1.57 0 4.76 4.76 0 0 1-1.12.31 3.28 3.28 0 0 0-1.54.08c-.18.08-.37.36-.55.34s-.35-.51-.57-.15c-.17-.39-.17-.54-.39-.34 0-.8.2-.67.3-1a6 6 0 0 1 .21-.91 2.82 2.82 0 0 0 1-.58c.23-.19.31-.15.6-.08.08 0 .14-.16.23-.18.25-.05.52.22.77.2s.29-.2.43-.25.17.1.26.07.08-.21.12-.21.24.13.37.1.26-.24.4-.26.54.19.82.21h1.85a14.32 14.32 0 0 0 2.92-.33 8.05 8.05 0 0 0 1 0 16.56 16.56 0 0 1 2.4 0 5.91 5.91 0 0 1 3 .67c.4.1.7.01.93.64ZM19.05 13.21c0 .2-.13 0-.18.06s.06.44-.07.44a3.83 3.83 0 0 0-1 .09c-.13.09.11 0 0 .18s-.4 0-.66.06a2.3 2.3 0 0 1-1.09.16c0 .19.11.06.15.12a26.87 26.87 0 0 1-3.5.08c-.14 0-.28-.08-.42-.08s-.32.17-.49.18c-.32 0-.64-.08-1-.09-.59 0-1.19.22-1.78.21h-1s-.11-.06-.15 0a1 1 0 0 0-.06.17s-.09-.19-.15-.21-.36.13-.51.09a2.87 2.87 0 0 0-.75-.23 9 9 0 0 0-1.66 0 6.7 6.7 0 0 1-1.18.24 4.84 4.84 0 0 0-1.63.06c-.19.06-.39.27-.58.26s-.37-.38-.6-.11c-.18-.29-.18-.4-.42-.26 0-.6.21-.5.32-.75a3.47 3.47 0 0 1 .22-.68 3.47 3.47 0 0 0 1.09-.43.74.74 0 0 1 .63-.06c.09 0 .15-.12.24-.14.26 0 .55.17.81.15s.31-.15.46-.19.18.08.27 0 .08-.15.12-.16.26.1.39.07.28-.18.43-.19a6.62 6.62 0 0 1 .87.16h2a21.09 21.09 0 0 0 3.08-.25c.34 0 .69.07 1 0a24.61 24.61 0 0 1 2.53 0 8.43 8.43 0 0 1 3.22.5c.48.15.8.08 1.05.55Z"/>
    </symbol>

    <symbol id="closex" viewBox="0 0 34 34">
      <title>Close x</title>
      <g fill="#1d1f23" fill-rule="evenodd">
        <path d="M21.59 19.74c0-.06 0-.26-.08-.3s-.23-.29-.37-.42a.6.6 0 0 1-.12-.29c0-.08-.14-.08-.19-.14a4.1 4.1 0 0 1-.26-.41 32.4 32.4 0 0 0-2.76-2.83h-.22c.06-.34-.28-.34-.5-.57-.44-.33-.78-.77-1.17-1.12h-.19c-.21-.13-.32-.38-.6-.37a1.62 1.62 0 0 0-.92-.71c.06-.21-.13-.19-.21-.26s-.1-.15-.18-.2a13.54 13.54 0 0 0-1.11-.84c0-.1 0-.19-.07-.21-.23.16-.44.31-.54.17l-.33.24c0-.19-.18-.08-.37.09.13.24.37.44.17.89 0 .08.08 0 .11.09a1.57 1.57 0 0 0 .34 1.36c.34.05.43.33.66.56.26-.1.24.15.32.26s.25.12.35.21.13.28.35.23c0 .11 0 .06.05.17a.36.36 0 0 1 .19 0c.35.25.61.67 1 .78v.17c0 .06.27.2.38.27s.07.16.14.23.25.13.35.21c.37.33.78.73 1 1s.55.49.79.76.42.34.59.54.14.26.23.37.44.2.48.52a1.17 1.17 0 0 1 .2.06 13.37 13.37 0 0 1 1.55 1.76c.05.07.09-.14.11-.07.21.12.25.35.41.49s.05-.06.08 0 .12.16.25.15.18-.16.22-.08.12 0 .14.15c.24-.15.26 0 .38.09s.24 0 .33.1.13.26.27.27.06-.1.16-.17a.85.85 0 0 0-.07-.64c-.1-.1 0-.37-.23-.47s.12 0 0-.1-.07 0-.1 0c.17-.17-.06-.4-.17-.36s0 .05 0 .09-.22-.27-.21-.43c.1 0 0 .19.15.17a1.13 1.13 0 0 0-.24-.48c-.11.1.09.16 0 .31-.09-.11-.17-.33-.23-.38s.17-.08.11-.16c-.05-.39-.3-.48-.42-.75Zm.33.62c.07.07-.14-.11 0 0Zm-.4-.55c.11-.08 0 .07.05.07-.09.13-.05-.05-.05-.07Zm.13.2-.07-.12s.18.05.07.12Zm.89 1.37c.08-.07.07.07.11.09s-.1-.03-.14-.05Z" class="line1"/>
        <path d="M19.89 12.35c.34 0-.14.11 0 .25s.2-.12.2-.12l.36-.47a6.93 6.93 0 0 1 1.26-1.47c.08 0 .19.08.27.06s0-.22.2-.19c.45.37-.14.51.16.9-.15.26-.51.52-.29.86-.73.9-.83 2.14-1.81 2.7a6.32 6.32 0 0 1-1.4 1.63 10 10 0 0 1-.75.83h-.2a11.5 11.5 0 0 0-.91 1.06 5.34 5.34 0 0 1-.48.64c-.27.25-.56.68-.91 1.07-.16.2-.44.3-.58.5v.2c0 .04-.1 0-.14.06s0 .13 0 .16a4.54 4.54 0 0 1-.38.38 3.18 3.18 0 0 1-.4.48 1.37 1.37 0 0 1-.42.25s-.17 0-.24 0-.06.09-.11.11c-.23.08-.61-.06-.7.2a1.23 1.23 0 0 0-.37 0 .78.78 0 0 1-.2-.45c-.15-.15-.32-.15-.38-.28s.37-.24.44-.44-.08-.47.11-.52c0-.09-.1-.23-.09-.31.28-.14.35-.51.59-.76.08-.08.25-.08.33-.17s0-.11 0-.13a2.57 2.57 0 0 1 .33-.32c.15-.14.47-.4.69-.61.35-.44.58-.95 1.08-1.31 0-.32.49-.47.63-.79s.57-.46.82-.73c1.05-1.14 2.11-2.17 3.29-3.27Z" class="line2"/>
      </g>
    </symbol>

    <symbol id="bulge" viewBox="0 0 200 600">
      <title>Bulge</title>
      <path d="M200 0c-80 300-80 300 0 600Z"/></svg>
    </symbol>

  </defs>
</svg>

